<mxfile host="app.diagrams.net" agent="Mozilla/5.0 (Windows NT 10.0; Win64; x64) AppleWebKit/537.36 (KHTML, like Gecko) Chrome/135.0.0.0 Safari/537.36" version="26.2.14">
  <diagram name="Page-1" id="8rayPu1Pozd3KVa7A8BL">
    <mxGraphModel dx="922" dy="504" grid="1" gridSize="10" guides="1" tooltips="1" connect="1" arrows="1" fold="1" page="1" pageScale="1" pageWidth="827" pageHeight="1169" math="0" shadow="0">
      <root>
        <mxCell id="0" />
        <mxCell id="1" parent="0" />
        <mxCell id="7671657Io0qio1-mGw3Y-3" value="" style="edgeStyle=orthogonalEdgeStyle;rounded=0;orthogonalLoop=1;jettySize=auto;html=1;" edge="1" parent="1" source="7671657Io0qio1-mGw3Y-1" target="7671657Io0qio1-mGw3Y-2">
          <mxGeometry relative="1" as="geometry" />
        </mxCell>
        <mxCell id="7671657Io0qio1-mGw3Y-1" value="Start" style="rounded=1;whiteSpace=wrap;html=1;arcSize=50;" vertex="1" parent="1">
          <mxGeometry x="318" y="50" width="85" height="30" as="geometry" />
        </mxCell>
        <mxCell id="7671657Io0qio1-mGw3Y-5" value="" style="edgeStyle=orthogonalEdgeStyle;rounded=0;orthogonalLoop=1;jettySize=auto;html=1;" edge="1" parent="1" source="7671657Io0qio1-mGw3Y-2" target="7671657Io0qio1-mGw3Y-4">
          <mxGeometry relative="1" as="geometry" />
        </mxCell>
        <mxCell id="7671657Io0qio1-mGw3Y-2" value="Buka Website Inventory" style="rounded=1;whiteSpace=wrap;html=1;arcSize=0;" vertex="1" parent="1">
          <mxGeometry x="300" y="120" width="120" height="40" as="geometry" />
        </mxCell>
        <mxCell id="7671657Io0qio1-mGw3Y-7" value="" style="edgeStyle=orthogonalEdgeStyle;rounded=0;orthogonalLoop=1;jettySize=auto;html=1;entryX=0.5;entryY=0;entryDx=0;entryDy=0;" edge="1" parent="1" source="7671657Io0qio1-mGw3Y-4" target="7671657Io0qio1-mGw3Y-6">
          <mxGeometry relative="1" as="geometry" />
        </mxCell>
        <mxCell id="7671657Io0qio1-mGw3Y-9" value="" style="edgeStyle=orthogonalEdgeStyle;rounded=0;orthogonalLoop=1;jettySize=auto;html=1;entryX=0.5;entryY=0;entryDx=0;entryDy=0;" edge="1" parent="1" source="7671657Io0qio1-mGw3Y-4" target="7671657Io0qio1-mGw3Y-8">
          <mxGeometry relative="1" as="geometry" />
        </mxCell>
        <mxCell id="7671657Io0qio1-mGw3Y-4" value="Apakah&amp;nbsp;&lt;div&gt;sudah punya&amp;nbsp;&lt;/div&gt;&lt;div&gt;akun?&lt;/div&gt;" style="rhombus;whiteSpace=wrap;html=1;rounded=1;arcSize=0;" vertex="1" parent="1">
          <mxGeometry x="305" y="200" width="110" height="80" as="geometry" />
        </mxCell>
        <mxCell id="7671657Io0qio1-mGw3Y-12" style="edgeStyle=orthogonalEdgeStyle;rounded=0;orthogonalLoop=1;jettySize=auto;html=1;entryX=1;entryY=0.5;entryDx=0;entryDy=0;exitX=0.5;exitY=1;exitDx=0;exitDy=0;" edge="1" parent="1" source="7671657Io0qio1-mGw3Y-6" target="7671657Io0qio1-mGw3Y-10">
          <mxGeometry relative="1" as="geometry" />
        </mxCell>
        <mxCell id="7671657Io0qio1-mGw3Y-6" value="Login" style="whiteSpace=wrap;html=1;rounded=1;arcSize=0;" vertex="1" parent="1">
          <mxGeometry x="440" y="280" width="90" height="40" as="geometry" />
        </mxCell>
        <mxCell id="7671657Io0qio1-mGw3Y-11" value="" style="edgeStyle=orthogonalEdgeStyle;rounded=0;orthogonalLoop=1;jettySize=auto;html=1;entryX=0;entryY=0.5;entryDx=0;entryDy=0;exitX=0.5;exitY=1;exitDx=0;exitDy=0;" edge="1" parent="1" source="7671657Io0qio1-mGw3Y-8" target="7671657Io0qio1-mGw3Y-10">
          <mxGeometry relative="1" as="geometry" />
        </mxCell>
        <mxCell id="7671657Io0qio1-mGw3Y-8" value="Sign Up" style="whiteSpace=wrap;html=1;rounded=1;arcSize=0;" vertex="1" parent="1">
          <mxGeometry x="190" y="280" width="90" height="40" as="geometry" />
        </mxCell>
        <mxCell id="7671657Io0qio1-mGw3Y-16" value="" style="edgeStyle=orthogonalEdgeStyle;rounded=0;orthogonalLoop=1;jettySize=auto;html=1;exitX=0.5;exitY=1;exitDx=0;exitDy=0;" edge="1" parent="1" source="7671657Io0qio1-mGw3Y-10" target="7671657Io0qio1-mGw3Y-15">
          <mxGeometry relative="1" as="geometry" />
        </mxCell>
        <mxCell id="7671657Io0qio1-mGw3Y-18" value="" style="edgeStyle=orthogonalEdgeStyle;rounded=0;orthogonalLoop=1;jettySize=auto;html=1;exitX=0.5;exitY=1;exitDx=0;exitDy=0;" edge="1" parent="1" source="7671657Io0qio1-mGw3Y-10" target="7671657Io0qio1-mGw3Y-17">
          <mxGeometry relative="1" as="geometry" />
        </mxCell>
        <mxCell id="7671657Io0qio1-mGw3Y-10" value="Pilih Menu" style="whiteSpace=wrap;html=1;rounded=1;arcSize=0;" vertex="1" parent="1">
          <mxGeometry x="315" y="340" width="90" height="40" as="geometry" />
        </mxCell>
        <mxCell id="7671657Io0qio1-mGw3Y-13" value="(Sudah)" style="text;html=1;align=center;verticalAlign=middle;resizable=0;points=[];autosize=1;strokeColor=none;fillColor=none;" vertex="1" parent="1">
          <mxGeometry x="430" y="216" width="70" height="30" as="geometry" />
        </mxCell>
        <mxCell id="7671657Io0qio1-mGw3Y-14" value="(Belum)" style="text;html=1;align=center;verticalAlign=middle;resizable=0;points=[];autosize=1;strokeColor=none;fillColor=none;" vertex="1" parent="1">
          <mxGeometry x="220" y="216" width="70" height="30" as="geometry" />
        </mxCell>
        <mxCell id="7671657Io0qio1-mGw3Y-21" style="edgeStyle=orthogonalEdgeStyle;rounded=0;orthogonalLoop=1;jettySize=auto;html=1;entryX=1;entryY=0.5;entryDx=0;entryDy=0;exitX=0.5;exitY=1;exitDx=0;exitDy=0;" edge="1" parent="1" source="7671657Io0qio1-mGw3Y-15" target="7671657Io0qio1-mGw3Y-19">
          <mxGeometry relative="1" as="geometry" />
        </mxCell>
        <mxCell id="7671657Io0qio1-mGw3Y-15" value="Lihat Data Inventory" style="whiteSpace=wrap;html=1;rounded=1;arcSize=0;" vertex="1" parent="1">
          <mxGeometry x="415" y="420" width="100" height="40" as="geometry" />
        </mxCell>
        <mxCell id="7671657Io0qio1-mGw3Y-20" value="" style="edgeStyle=orthogonalEdgeStyle;rounded=0;orthogonalLoop=1;jettySize=auto;html=1;exitX=0.5;exitY=1;exitDx=0;exitDy=0;entryX=0;entryY=0.5;entryDx=0;entryDy=0;" edge="1" parent="1" source="7671657Io0qio1-mGw3Y-17" target="7671657Io0qio1-mGw3Y-19">
          <mxGeometry relative="1" as="geometry" />
        </mxCell>
        <mxCell id="7671657Io0qio1-mGw3Y-17" value="Input Data Barang" style="whiteSpace=wrap;html=1;rounded=1;arcSize=0;" vertex="1" parent="1">
          <mxGeometry x="200" y="420" width="105" height="40" as="geometry" />
        </mxCell>
        <mxCell id="7671657Io0qio1-mGw3Y-25" value="" style="edgeStyle=orthogonalEdgeStyle;rounded=0;orthogonalLoop=1;jettySize=auto;html=1;" edge="1" parent="1" source="7671657Io0qio1-mGw3Y-19" target="7671657Io0qio1-mGw3Y-24">
          <mxGeometry relative="1" as="geometry" />
        </mxCell>
        <mxCell id="7671657Io0qio1-mGw3Y-27" value="" style="edgeStyle=orthogonalEdgeStyle;rounded=0;orthogonalLoop=1;jettySize=auto;html=1;exitX=0;exitY=0.5;exitDx=0;exitDy=0;" edge="1" parent="1" source="7671657Io0qio1-mGw3Y-19" target="7671657Io0qio1-mGw3Y-26">
          <mxGeometry relative="1" as="geometry" />
        </mxCell>
        <mxCell id="7671657Io0qio1-mGw3Y-19" value="Apakah selesai?" style="rhombus;whiteSpace=wrap;html=1;rounded=1;arcSize=0;" vertex="1" parent="1">
          <mxGeometry x="315" y="480" width="90" height="60" as="geometry" />
        </mxCell>
        <mxCell id="7671657Io0qio1-mGw3Y-22" value="(Tidak)" style="text;html=1;align=center;verticalAlign=middle;resizable=0;points=[];autosize=1;strokeColor=none;fillColor=none;" vertex="1" parent="1">
          <mxGeometry x="410" y="488" width="60" height="30" as="geometry" />
        </mxCell>
        <mxCell id="7671657Io0qio1-mGw3Y-23" value="(Ya)" style="text;html=1;align=center;verticalAlign=middle;resizable=0;points=[];autosize=1;strokeColor=none;fillColor=none;" vertex="1" parent="1">
          <mxGeometry x="260" y="488" width="50" height="30" as="geometry" />
        </mxCell>
        <mxCell id="7671657Io0qio1-mGw3Y-24" value="Kembali Ke Menu" style="whiteSpace=wrap;html=1;rounded=1;arcSize=0;" vertex="1" parent="1">
          <mxGeometry x="417" y="560" width="96" height="40" as="geometry" />
        </mxCell>
        <mxCell id="7671657Io0qio1-mGw3Y-26" value="Logout" style="whiteSpace=wrap;html=1;rounded=1;arcSize=50;" vertex="1" parent="1">
          <mxGeometry x="245" y="560" width="80" height="30" as="geometry" />
        </mxCell>
        <mxCell id="7671657Io0qio1-mGw3Y-28" style="edgeStyle=orthogonalEdgeStyle;rounded=0;orthogonalLoop=1;jettySize=auto;html=1;exitX=0.5;exitY=1;exitDx=0;exitDy=0;" edge="1" parent="1" source="7671657Io0qio1-mGw3Y-26" target="7671657Io0qio1-mGw3Y-26">
          <mxGeometry relative="1" as="geometry" />
        </mxCell>
      </root>
    </mxGraphModel>
  </diagram>
</mxfile>
